<svg width="71" height="71" viewBox="0 0 71 71" fill="none" xmlns="http://www.w3.org/2000/svg">
<circle cx="35.5" cy="35.5" r="33" stroke="#163DFA" stroke-width="5"/>
<path d="M35.5 9C50.1355 9 62 20.8645 62 35.5C62 50.1355 50.1355 62 35.5 62C20.8645 62 9 50.1355 9 35.5C9 20.8645 20.8645 9 35.5 9ZM30.999 43.999C29.339 43.999 27.999 45.339 27.999 46.999C27.999 48.659 29.339 49.999 30.999 49.999C32.659 49.999 33.999 48.659 33.999 46.999C33.999 45.339 32.659 43.999 30.999 43.999ZM43.999 43.999C42.339 43.999 40.999 45.339 40.999 46.999C40.999 48.659 42.339 49.999 43.999 49.999C45.659 49.999 46.999 48.659 46.999 46.999C46.999 45.339 45.659 43.999 43.999 43.999ZM30.999 45.999C31.549 45.999 31.999 46.449 31.999 46.999C31.999 47.549 31.549 47.999 30.999 47.999C30.449 47.999 29.999 47.549 29.999 46.999C29.999 46.449 30.449 45.999 30.999 45.999ZM43.999 45.999C44.549 45.999 44.999 46.449 44.999 46.999C44.999 47.549 44.549 47.999 43.999 47.999C43.449 47.999 42.999 47.549 42.999 46.999C42.999 46.449 43.449 45.999 43.999 45.999ZM23.8291 22.4492C23.5291 21.9893 22.8992 21.8591 22.4492 22.1689C21.9893 22.4689 21.8591 23.0988 22.1689 23.5488L24.0791 26.4189L26.9688 37.2588C27.7087 40.0487 30.2488 41.9989 33.1387 41.999H45.999C46.549 41.999 46.999 41.549 46.999 40.999C46.999 40.449 46.549 39.999 45.999 39.999H33.1387C31.5689 39.9989 30.1491 39.1591 29.3691 37.8594L46.2695 36.1387C47.5793 36.0085 48.6392 35.0484 48.9092 33.7686L49.9795 28.6094C50.3695 26.7494 48.9391 24.999 47.0391 24.999H25.5391L23.8291 22.4492ZM47.0391 26.999C47.6791 26.999 48.1495 27.5792 48.0195 28.1992L46.9492 33.3594C46.8591 33.7891 46.5091 34.1094 46.0693 34.1494L28.6787 35.9189L26.2988 26.999H47.0391Z" fill="#163DFA"/>
</svg>
