<svg width="71" height="71" viewBox="0 0 71 71" fill="none" xmlns="http://www.w3.org/2000/svg">
<circle cx="35.5" cy="35.5" r="33" stroke="#163DFA" stroke-width="5"/>
<path d="M35.5 9C50.1355 9 62 20.8645 62 35.5C62 50.1355 50.1355 62 35.5 62C20.8645 62 9 50.1355 9 35.5C9 20.8645 20.8645 9 35.5 9ZM27 22.001C24.24 22.001 22 24.239 22 27.001V44.998C22 47.758 24.24 49.998 27 49.998H45C47.76 49.998 50 47.758 50 44.998V38.998C50 38.448 49.55 38.001 49 38.001C48.45 38.001 48 38.448 48 38.998V44.998C48 46.658 46.66 47.998 45 47.998H27C25.34 47.998 24 46.658 24 44.998V27.001C24 25.344 25.34 24.001 27 24.001H33C33.55 24.001 34 23.553 34 23.001C34 22.448 33.55 22.001 33 22.001H27ZM41 22C40.4501 21.999 40.0002 22.4462 40 22.998C40 23.55 40.45 23.999 41 24L46.5801 24.0107L33.29 37.293C32.9001 37.6829 32.9002 38.317 33.29 38.707C33.68 39.097 34.32 39.097 34.71 38.707L48 25.4141V31C48 31.552 48.45 32 49 32C49.55 32 50 31.552 50 31V23.0068C50 22.7488 49.9 22.489 49.71 22.293C49.47 22.0542 49.14 21.9617 48.8301 22.0146L41 22Z" fill="#163DFA"/>
</svg>
