<svg width="71" height="71" viewBox="0 0 71 71" fill="none" xmlns="http://www.w3.org/2000/svg">
<circle cx="35.5" cy="35.5" r="33" stroke="#163DFA" stroke-width="5"/>
<path d="M35.5 9C50.1355 9 62 20.8645 62 35.5C62 50.1355 50.1355 62 35.5 62C20.8645 62 9 50.1355 9 35.5C9 20.8645 20.8645 9 35.5 9ZM27.6602 22.0107C21.6903 22.0107 19.8751 23.7603 19.875 29.5059V41.4941C19.8751 47.2397 21.6903 48.9893 27.6602 48.9893H44.3398C50.3097 48.9893 52.1253 47.2397 52.1104 41.4795V30.5605C52.119 30.5067 52.125 30.4515 52.125 30.3955C52.125 30.3394 52.119 30.2844 52.1104 30.2305V29.5059C52.1103 23.7604 50.2949 22.0108 44.3252 22.0107H27.6602ZM49.8604 31.4893V41.4795C49.8603 46 49.0349 46.7871 44.3252 46.7871H27.6602C22.9503 46.7871 22.125 46 22.125 41.4795V31.4893H49.8604ZM27 40.9688C26.385 40.9688 25.875 41.4646 25.875 42.0625C25.875 42.6604 26.385 43.1562 27 43.1562H30C30.615 43.1562 31.125 42.6604 31.125 42.0625C31.125 41.4646 30.615 40.9688 30 40.9688H27ZM33.75 40.9688C33.135 40.9688 32.625 41.4646 32.625 42.0625C32.625 42.6604 33.135 43.1562 33.75 43.1562H39.75C40.365 43.1562 40.875 42.6604 40.875 42.0625C40.875 41.4646 40.365 40.9688 39.75 40.9688H33.75ZM44.3252 24.1982C48.9631 24.1983 49.8319 24.9616 49.8574 29.3018H22.1279C22.1534 24.9616 23.0221 24.1982 27.6602 24.1982H44.3252Z" fill="#163DFA"/>
</svg>
