<svg width="66" height="26" viewBox="0 0 66 26" fill="none" xmlns="http://www.w3.org/2000/svg">
<path d="M65.7449 10.2205C65.7752 10.2205 65.8053 10.2267 65.8333 10.2386C65.8613 10.2506 65.8866 10.2681 65.9079 10.2902C65.9291 10.3122 65.9459 10.3384 65.9571 10.3671C65.9683 10.3958 65.9737 10.4265 65.9731 10.4574V10.5667C65.9731 10.6942 65.9731 10.8309 65.9731 11.1816C65.8737 12.5746 65.2689 13.8803 64.2763 14.8449C63.2837 15.8095 61.9742 16.3642 60.6022 16.4012H51.3194H50.648C50.0349 16.3785 45.9798 15.5814 45.7247 10.8217V5.82525C45.7247 5.69317 45.747 5.27414 45.7605 5.00997C45.7995 4.52341 45.9112 4.04575 46.0917 3.59346C46.6646 2.13596 48.2669 0.0134809 51.0956 -0.000183105H60.3739C60.4993 -0.000183105 60.8215 -0.000183105 61.0408 -0.000183105C62.3936 0.138967 63.6471 0.785498 64.5572 1.81351C65.4673 2.84152 65.9689 4.17742 65.9642 5.56108V6.2124C65.9648 6.24329 65.9593 6.27398 65.9481 6.30269C65.9369 6.33141 65.9202 6.35755 65.8989 6.37961C65.8777 6.40166 65.8523 6.41918 65.8243 6.43114C65.7963 6.4431 65.7663 6.44925 65.7359 6.44925H59.7742C59.713 6.44529 59.6542 6.4234 59.605 6.38623C59.5558 6.34905 59.5181 6.29817 59.4967 6.23973C59.4967 6.23973 59.1028 4.58638 57.6124 4.53628H54.3271C54.0925 4.52896 53.8579 4.55191 53.6289 4.6046C53.1607 4.78607 52.7611 5.11401 52.4876 5.54124C52.2142 5.96848 52.081 6.47297 52.1071 6.98214V9.1274C52.1071 9.25948 52.1071 9.58287 52.1071 9.79694C52.1071 9.79694 52.2907 11.6871 54.0675 11.8147H57.3528C57.719 11.8725 58.0936 11.8001 58.4135 11.6097C58.85 11.3251 59.1929 10.9143 59.3982 10.43C59.4009 10.3958 59.4105 10.3625 59.4264 10.3322C59.4423 10.3018 59.4641 10.2752 59.4906 10.2538C59.517 10.2324 59.5475 10.2169 59.5801 10.208C59.6127 10.1991 59.6468 10.1972 59.6802 10.2023L65.7449 10.2205ZM23.4755 0.427958C23.5382 0.314091 23.4755 0.222999 23.3591 0.222999H0.25512C0.19458 0.222999 0.136519 0.247472 0.0937112 0.291035C0.0509031 0.334597 0.0268537 0.393678 0.0268537 0.455285V4.98264C0.0268537 5.04425 0.0509031 5.10333 0.0937112 5.14689C0.136519 5.19046 0.19458 5.21493 0.25512 5.21493H5.92147C5.98284 5.2161 6.04137 5.24142 6.08477 5.28559C6.12817 5.32975 6.15306 5.38932 6.15421 5.45177V15.9275C6.15421 15.9891 6.17826 16.0482 6.22107 16.0918C6.26388 16.1354 6.32193 16.1598 6.38247 16.1598H15.3027C15.3633 16.1598 15.4213 16.1354 15.4641 16.0918C15.5069 16.0482 15.531 15.9891 15.531 15.9275V5.45177C15.531 5.38896 15.5555 5.32872 15.5992 5.2843C15.6428 5.23988 15.702 5.21493 15.7637 5.21493H20.4365C20.5063 5.21093 20.5743 5.1903 20.635 5.1547C20.6956 5.1191 20.7472 5.06953 20.7856 5.00997L23.4755 0.427958ZM42.2738 9.25493H42.5155L43.4733 7.72H29.0524C29.3429 6.85708 29.7891 6.05693 30.3682 5.36068C30.4618 5.25185 30.5936 5.18478 30.7352 5.17393H34.4143C34.4447 5.17393 34.4748 5.18009 34.5027 5.19204C34.5307 5.204 34.5561 5.22152 34.5774 5.24357C34.5986 5.26563 34.6153 5.29178 34.6265 5.32049C34.6377 5.3492 34.6432 5.37989 34.6426 5.41078V7.41028H43.4152V0.459841C43.4152 0.428949 43.4091 0.398365 43.3974 0.369881C43.3856 0.341398 43.3684 0.315588 43.3467 0.293957C43.3251 0.272327 43.2994 0.255313 43.2712 0.243911C43.2429 0.232509 43.2128 0.226945 43.1824 0.227551H27.1859C27.0412 0.235629 26.9043 0.297173 26.801 0.400631C26.801 0.400631 22.7057 4.54539 22.7191 10.3116C22.7191 13.8688 24.1514 15.9776 24.1514 15.9776C24.1975 16.0328 24.2543 16.0779 24.3182 16.11C24.3821 16.1421 24.4517 16.1606 24.5229 16.1644H30.3682C30.4936 16.1644 30.5294 16.087 30.4488 15.9868C29.6308 14.8201 29.062 13.492 28.7793 12.0879H40.7118L42.2783 9.57376H28.6495C28.6495 9.469 28.6495 9.36424 28.6853 9.25948L42.2738 9.25493ZM47.9805 22.4362H48.9517C48.7727 21.835 48.6116 21.252 48.4818 20.7008C48.3162 21.3021 48.1461 21.8805 47.9805 22.4362ZM42.3589 22.1902H41.8039V23.502H42.3589C42.5609 23.5182 42.7612 23.4546 42.9183 23.3243C42.9783 23.2603 43.0248 23.1844 43.0548 23.1014C43.0849 23.0183 43.0978 22.9299 43.0929 22.8415C43.0954 22.7576 43.0813 22.674 43.0513 22.5957C43.0213 22.5174 42.9761 22.4461 42.9183 22.3861C42.7608 22.2567 42.5608 22.1932 42.3589 22.2084M9.79303 22.4544H10.7598C10.5852 21.8532 10.4241 21.2702 10.3122 20.7191C10.1466 21.3203 9.97653 21.8987 9.81093 22.4544M28.6809 20.5095C28.0005 20.5095 27.7499 21.0516 27.7499 22.008C27.7499 23.042 28.0095 23.6158 28.6988 23.6158C29.2851 23.6158 29.5939 23.1604 29.5939 22.0946C29.5939 21.1199 29.397 20.5095 28.6988 20.5095M66 18.7697V25.0141C66 25.0757 65.976 25.1348 65.9331 25.1784C65.8903 25.2219 65.8323 25.2464 65.7717 25.2464H0.228263C0.167723 25.2464 0.109666 25.2219 0.0668575 25.1784C0.0240495 25.1348 3.98531e-09 25.0757 3.98531e-09 25.0141V18.756C-1.12691e-05 18.694 0.0238935 18.6344 0.0665775 18.5901C0.109262 18.5458 0.167315 18.5203 0.228263 18.5192H65.7136C65.7745 18.5203 65.8326 18.5458 65.8752 18.5901C65.9179 18.6344 65.9418 18.694 65.9418 18.756M6.17659 20.0404H3.46426V20.5961H4.45789V24.0531H5.11583V20.5961H6.10498L6.17659 20.0404ZM11.9235 24.0531L10.6613 20.0404H9.90492L8.61142 24.0531H9.28279L9.60057 22.9964H10.8762L11.1939 24.0531H11.9235ZM17.7017 23.757L17.3974 23.3334C17.2011 23.5052 16.9489 23.5962 16.6902 23.5885C16.5015 23.6027 16.3132 23.5557 16.1524 23.4543C15.9915 23.3528 15.8665 23.2021 15.7951 23.0237C15.6714 22.7102 15.6179 22.3726 15.6384 22.0354C15.6171 21.6734 15.6896 21.3122 15.8488 20.9878C15.9222 20.841 16.0344 20.7181 16.1728 20.6328C16.3112 20.5475 16.4702 20.5032 16.632 20.505C16.8746 20.5023 17.111 20.5825 17.3034 20.7327L17.6033 20.2773C17.3198 20.0653 16.9747 19.9562 16.6231 19.9675C16.3222 19.9678 16.0273 20.0532 15.7712 20.214C15.5152 20.3748 15.308 20.6049 15.1729 20.8785C14.9881 21.254 14.8973 21.6702 14.9089 22.09C14.8914 22.5994 15.0497 23.099 15.3564 23.502C15.5058 23.69 15.6958 23.8404 15.9116 23.9416C16.1274 24.0427 16.3632 24.0918 16.6007 24.085C16.9896 24.0952 17.3702 23.9699 17.6794 23.7297M23.9455 23.6067L23.7709 23.5566C23.6841 23.5335 23.6031 23.4916 23.5337 23.4337C23.463 23.3547 23.4164 23.2566 23.3994 23.1513L23.2473 22.5182C23.2277 22.381 23.1714 22.2519 23.0845 22.145C22.9977 22.0382 22.8837 21.9577 22.7549 21.9124C22.8573 21.8795 22.9519 21.8252 23.0324 21.753C23.162 21.6221 23.2441 21.4502 23.2652 21.2656L23.3681 20.8466C23.3865 20.7534 23.4264 20.666 23.4845 20.5915C23.5464 20.5343 23.6249 20.4991 23.7083 20.4913L23.8918 20.4412L23.7664 19.9858L23.5337 20.0222C23.3484 20.0197 23.1686 20.0861 23.0279 20.2089C22.9132 20.3355 22.8383 20.4941 22.8131 20.6644L22.7102 21.1518C22.6907 21.288 22.6367 21.4167 22.5535 21.5252C22.4989 21.5729 22.4356 21.609 22.3673 21.6317C22.2989 21.6544 22.2268 21.6631 22.1552 21.6573H21.7076V20.0359H21.0541V24.0485H21.7076V22.1993H22.0835C22.2224 22.1902 22.3597 22.234 22.4685 22.3223C22.5673 22.4309 22.6313 22.5675 22.652 22.714L22.7862 23.3289C22.7987 23.5213 22.8708 23.7047 22.9921 23.8527C23.1711 23.9954 23.3914 24.0739 23.6187 24.0759L23.8381 24.1032L23.9455 23.6067ZM30.2742 22.0627C30.2742 20.8967 29.7371 19.9994 28.6272 19.9994C27.6425 19.9994 26.9845 20.7418 26.9845 22.0581C26.9845 23.2424 27.5351 24.126 28.6585 24.126C29.679 24.126 30.2742 23.3107 30.2742 22.0627ZM37.5966 24.0668L37.2475 20.0541H36.3792L35.7571 22.3314C35.6975 22.5518 35.6497 22.7753 35.6139 23.001C35.5915 22.8825 35.5557 22.6548 35.4662 22.3178L34.8664 20.0404H33.9936L33.6311 24.0531H34.2756L34.4502 21.63C34.4502 21.384 34.486 20.9969 34.486 20.8648C34.5083 20.9969 34.5844 21.3567 34.656 21.6254L35.314 24.0531H35.869L36.5896 21.5116C36.6612 21.2565 36.7149 21.0015 36.7418 20.8694C36.7418 20.9923 36.7418 21.3248 36.7686 21.5662L36.9521 24.0531L37.5966 24.0668ZM43.7956 22.8962C43.8026 22.7355 43.7781 22.5751 43.7236 22.4242C43.669 22.2732 43.5855 22.1349 43.4778 22.0171C43.1547 21.7507 42.7414 21.6247 42.3275 21.6664H41.7815V20.6006H43.4107L43.4957 20.0541H41.128V24.0668H42.3007C42.5178 24.09 42.7373 24.0689 42.9463 24.0048C43.1554 23.9406 43.3498 23.8347 43.5181 23.6933C43.6136 23.5855 43.6873 23.4597 43.735 23.3229C43.7826 23.1861 43.8032 23.0411 43.7956 22.8962ZM50.1109 24.0668L48.8532 20.0541H48.0968L46.8033 24.0668H47.4792L47.797 23.0101H49.0726L49.3903 24.0668H50.1109ZM55.9295 20.0541H55.2715V21.6664H53.9288V20.0541H53.2753V24.0668H53.9288V22.2084H55.2715V24.0668H55.9295V20.0541ZM62.4776 23.6477L62.3075 23.5976C62.2189 23.5754 62.1364 23.5334 62.0658 23.4746C61.9969 23.3951 61.9519 23.2971 61.936 23.1923L61.757 22.55C61.7224 22.3762 61.6365 22.2173 61.5108 22.0946C61.4376 22.032 61.3543 21.9827 61.2646 21.9488C61.367 21.9191 61.4608 21.8644 61.5376 21.7894C61.6686 21.6589 61.7522 21.4871 61.7749 21.3021L61.8778 20.883C61.8958 20.7888 61.9374 20.7009 61.9986 20.628C62.059 20.571 62.1361 20.5358 62.218 20.5278L62.4015 20.4777L62.2761 20.0222L62.0434 20.0586C61.8581 20.0561 61.6783 20.1225 61.5376 20.2454C61.4223 20.371 61.3487 20.5303 61.3273 20.7008L61.2154 21.1882C61.1959 21.3244 61.1419 21.4531 61.0587 21.5617C61.0043 21.6095 60.941 21.6458 60.8726 21.6685C60.8042 21.6912 60.7321 21.6998 60.6604 21.6938H60.2128V20.0723H59.5593V24.085H60.2128V22.2358H60.5888C60.7289 22.2272 60.8674 22.2709 60.9782 22.3587C61.074 22.4688 61.1362 22.6049 61.1572 22.7504L61.287 23.3653C61.3049 23.558 61.3798 23.7407 61.5018 23.8891C61.679 24.0319 61.898 24.1104 62.124 24.1123L62.3433 24.1396L62.4776 23.6477ZM40.8013 12.4387H34.6426V15.9458C34.6438 16.0078 34.6688 16.0669 34.7123 16.1103C34.7559 16.1537 34.8144 16.1781 34.8754 16.178H43.1824C43.2128 16.1787 43.2429 16.1731 43.2712 16.1617C43.2994 16.1503 43.3251 16.1333 43.3467 16.1116C43.3684 16.09 43.3856 16.0642 43.3974 16.0357C43.4091 16.0072 43.4152 15.9766 43.4152 15.9458V8.26201L40.8013 12.4387Z" fill="white"/>
</svg>
