<svg width="71" height="71" viewBox="0 0 71 71" fill="none" xmlns="http://www.w3.org/2000/svg">
<circle cx="35.5" cy="35.5" r="33" stroke="#163DFA" stroke-width="5"/>
<path d="M35.5 9C50.1355 9 62 20.8645 62 35.5C62 50.1355 50.1355 62 35.5 62C20.8645 62 9 50.1355 9 35.5C9 20.8645 20.8645 9 35.5 9ZM29.6543 20C27.6374 20 26 21.6294 26 23.6367V48.3633C26 50.3706 27.6374 52 29.6543 52H41.3457C43.3626 52 45 50.3706 45 48.3633V23.6367C45 21.6294 43.3626 20 41.3457 20H29.6543ZM35.5 46.1816C36.713 46.1816 37.6922 47.1562 37.6924 48.3633C37.6924 49.5706 36.7131 50.5459 35.5 50.5459C34.2869 50.5459 33.3076 49.5706 33.3076 48.3633C33.3078 47.1562 34.287 46.1816 35.5 46.1816ZM42.0771 44.7275H28.9229V24.3633H42.0771V44.7275ZM32.7305 31C31.7752 31.0001 31 31.6217 31 32.3848V36.4463C31 37.2093 31.7752 37.8309 32.7305 37.8311H33.0811C33.358 37.8311 33.617 37.9169 33.8154 38.0732L34.6045 38.7021C34.8491 38.8995 35.1769 39 35.5 39C35.8231 39 36.1509 38.8995 36.3955 38.7021L37.1846 38.0732C37.3784 37.9169 37.642 37.8311 37.9189 37.8311H38.2695C39.2248 37.8309 40 37.2093 40 36.4463V32.3848C40 31.6217 39.2248 31.0001 38.2695 31H32.7305ZM38.2695 31.5547C38.8416 31.5548 39.3075 31.9232 39.3076 32.3809V36.4424C39.3076 36.8965 38.8417 37.2684 38.2695 37.2686H37.9229C37.4614 37.2686 37.0278 37.4143 36.7002 37.6748L35.9111 38.3037C35.685 38.4824 35.3199 38.4824 35.0938 38.3037L34.3047 37.6748C33.977 37.4142 33.5426 37.2686 33.0811 37.2686H32.7305C32.1583 37.2684 31.6924 36.9002 31.6924 36.4424V32.3809C31.6925 31.9269 32.1584 31.5548 32.7305 31.5547H38.2695ZM34.4365 34C34.0561 34 34 34.3819 34 34.6094V36.3906C34 36.6181 34.0561 37 34.4365 37H34.5635C34.9439 37 35 36.6181 35 36.3906V34.6094C35 34.3819 34.9439 34 34.5635 34H34.4365ZM36.4297 33.0361C36.1823 32.9401 35.8757 33.0434 35.7314 33.2676L35 34.3955L35.4297 34.6943L36.1611 33.5664C36.1749 33.5486 36.2269 33.5303 36.2578 33.541C36.2955 33.5554 36.3257 33.6091 36.3154 33.6553L36.2266 34.249C36.2094 34.3841 36.2469 34.5195 36.3291 34.6191C36.415 34.7188 36.536 34.7764 36.6631 34.7764H37.377C37.4216 34.7764 37.4599 34.7902 37.4736 34.8115C37.4908 34.8399 37.48 34.8788 37.4697 34.9072L37.0371 36.2773C37.0131 36.3699 36.8892 36.4629 36.7861 36.4629H36.1064C36.0412 36.4629 35.9651 36.4412 35.9238 36.4092L35.3711 35.9648L35.0547 36.3877L35.584 36.8115C35.718 36.9503 35.9484 37 36.1064 37H36.7861C37.1261 37 37.456 36.7404 37.5352 36.4238L37.9619 35.0781C38.0304 34.8755 38.0063 34.6655 37.8965 34.502C37.7831 34.3347 37.5934 34.2383 37.377 34.2383H36.752L36.8242 33.751C36.8859 33.4523 36.7076 33.1324 36.4297 33.0361ZM34.6289 34.5322C34.6313 34.5392 34.6338 34.5639 34.6338 34.6094V36.3906C34.6338 36.4361 34.6318 36.4578 34.6318 36.4648C34.6245 36.4684 34.6023 36.4746 34.5635 36.4746H34.4365C34.4 36.4746 34.3804 36.4717 34.373 36.4717C34.3725 36.4717 34.3712 36.4719 34.3711 36.4746C34.3687 36.464 34.3662 36.4397 34.3662 36.3945V34.6123C34.3662 34.567 34.3682 34.546 34.3682 34.5391C34.3755 34.5356 34.3975 34.5283 34.4365 34.5283H34.5635C34.6039 34.5283 34.6235 34.5321 34.6289 34.5322Z" fill="#163DFA"/>
</svg>
