<svg width="71" height="71" viewBox="0 0 71 71" fill="none" xmlns="http://www.w3.org/2000/svg">
<circle cx="35.5" cy="35.5" r="33" stroke="#030E2C" stroke-width="5"/>
<path d="M35.5 9C50.1355 9 62 20.8645 62 35.5C62 50.1355 50.1355 62 35.5 62C20.8645 62 9 50.1355 9 35.5C9 20.8645 20.8645 9 35.5 9ZM22 46.8887C22 48.6076 23.3924 50 25.1113 50H31.333V46.8887H25.1113V40.667H22V46.8887ZM46.8887 46.8887H40.667V50H46.8887C48.6076 50 50 48.6076 50 46.8887V40.667H46.8887V46.8887ZM25.1113 22C23.3924 22 22 23.3924 22 25.1113V31.333H25.1113V25.1113H31.333V22H25.1113ZM40.667 25.1113H46.8887V31.333H50V25.1113C50 23.3924 48.6076 22 46.8887 22H40.667V25.1113Z" fill="#030E2C"/>
</svg>
