<svg width="52" height="49" viewBox="0 0 52 49" fill="none" xmlns="http://www.w3.org/2000/svg">
<path d="M50.1696 19.3091H1.8363C0.84547 19.3091 0.0238037 18.4874 0.0238037 17.4966C0.0238037 16.5057 0.84547 15.6841 1.8363 15.6841H50.1696C51.1605 15.6841 51.9821 16.5057 51.9821 17.4966C51.9821 18.4874 51.1605 19.3091 50.1696 19.3091Z" fill="white"/>
<path d="M24.9159 44.6842H12.5668C2.94848 44.6842 0.00012207 41.7842 0.00012207 32.2625V12.3975C0.00012207 4.78501 1.61927 0.555844 10.2468 0.0483437C10.9718 0.024177 11.7452 0 12.5668 0H39.4159C49.0343 0 51.9826 2.9 51.9826 12.4217V23.0792C51.9826 24.07 51.161 24.8917 50.1701 24.8917C49.1793 24.8917 48.3576 24.07 48.3576 23.0792V12.4217C48.3576 4.95417 47.0284 3.625 39.4159 3.625H12.5668C11.7935 3.625 11.0926 3.64918 10.4159 3.67334C5.17178 3.98751 3.62512 5.17167 3.62512 12.4217V32.2867C3.62512 39.7542 4.95432 41.0833 12.5668 41.0833H24.9159C25.9068 41.0833 26.7284 41.905 26.7284 42.8958C26.7284 43.8867 25.9309 44.6842 24.9159 44.6842Z" fill="white"/>
<path d="M21.1696 33.8091H11.5029C10.5121 33.8091 9.69043 32.9874 9.69043 31.9966C9.69043 31.0057 10.5121 30.1841 11.5029 30.1841H21.1696C22.1604 30.1841 22.9821 31.0057 22.9821 31.9966C22.9821 32.9874 22.1604 33.8091 21.1696 33.8091Z" fill="white"/>
<path d="M40.5031 48.3099C36.4914 48.3099 32.7214 46.1832 30.6914 42.7274C29.6039 40.9874 29.0239 38.9332 29.0239 36.8307C29.0239 30.4991 34.1714 25.3516 40.5031 25.3516C46.8348 25.3516 51.9823 30.4991 51.9823 36.8307C51.9823 38.9332 51.4023 40.9874 50.3148 42.7516C48.2848 46.1832 44.5148 48.3099 40.5031 48.3099ZM40.5031 28.9766C36.1773 28.9766 32.6489 32.5049 32.6489 36.8307C32.6489 38.2566 33.0355 39.6582 33.7847 40.8666C35.1864 43.2349 37.7723 44.6849 40.5031 44.6849C43.2339 44.6849 45.8198 43.2349 47.2215 40.8907C47.9707 39.6582 48.3573 38.2807 48.3573 36.8307C48.3573 32.5049 44.8289 28.9766 40.5031 28.9766Z" fill="white"/>
<path d="M39.1253 41.034C38.6661 41.034 38.207 40.8649 37.8445 40.5024L35.4519 38.1099C34.7511 37.409 34.7511 36.249 35.4519 35.5482C36.1527 34.8474 37.3127 34.8474 38.0136 35.5482L39.1737 36.7082L43.0403 33.1315C43.7653 32.4549 44.9253 32.5032 45.6019 33.2282C46.2786 33.9532 46.2303 35.1132 45.5053 35.7899L40.3578 40.5507C39.9953 40.8649 39.5603 41.034 39.1253 41.034Z" fill="white"/>
</svg>
